<svg xmlns="http://www.w3.org/2000/svg" version="1.1" xmlns:xlink="http://www.w3.org/1999/xlink" width="1000" height="1000"><metadata><rdf:RDF xmlns:rdf="http://www.w3.org/1999/02/22-rdf-syntax-ns#" xmlns:dc="http://purl.org/dc/elements/1.1/"><rdf:Description><dc:creator>RealFaviconGenerator</dc:creator><dc:source>https://realfavicongenerator.net</dc:source></rdf:Description></rdf:RDF></metadata><g clip-path="url(#SvgjsClipPath1508)"><rect width="1000" height="1000" fill="#ffffff"></rect><g transform="matrix(0.5,0,0,0.5,0,0)"><svg xmlns="http://www.w3.org/2000/svg" version="1" xmlns:xlink="http://www.w3.org/1999/xlink" width="2000" zoomAndPan="magnify" viewBox="0 0 1500 1499.999933" height="2000" preserveAspectRatio="xMidYMid meet"><defs><g></g><clipPath id="5446c31fa5"><rect x="0" width="539" y="0" height="668"></rect></clipPath><clipPath id="b6452bd9a4"><rect x="0" width="384" y="0" height="676"></rect></clipPath><clipPath id="SvgjsClipPath1508"><rect width="1000" height="1000" x="0" y="0" rx="500" ry="500"></rect></clipPath></defs><g transform="matrix(1, 0, 0, 1, 625, 404)"><g clip-path="url(#5446c31fa5)"><g fill="#ffffff" fill-opacity="1"><g transform="translate(23.063113, 511.466001)"><g><path d="M -13.757812 0 L -13.757812 -41.589844 L 19.417969 -41.589844 C 24.863281 -41.589844 29.355469 -41.929688 32.898438 -42.613281 C 34.757812 -42.96875 35.878906 -43.261719 36.257812 -43.484375 C 33.285156 -41.734375 31.328125 -39.640625 30.386719 -37.203125 C 30.734375 -38.101562 30.910156 -40.15625 30.910156 -43.371094 L 30.910156 -428.519531 C 30.910156 -431.992188 30.71875 -434.222656 30.34375 -435.210938 C 31.371094 -432.511719 33.558594 -430.230469 36.894531 -428.367188 C 36.433594 -428.625 35.199219 -428.9375 33.199219 -429.300781 C 29.5625 -429.96875 24.96875 -430.300781 19.417969 -430.300781 L -13.757812 -430.300781 L -13.757812 -505.066406 L 203.257812 -505.066406 C 228.554688 -505.066406 253.3125 -503.820312 277.527344 -501.332031 C 303.828125 -498.628906 327.855469 -492.773438 349.609375 -483.773438 C 374.109375 -473.636719 393.796875 -458.40625 408.679688 -438.089844 C 424.171875 -416.933594 431.917969 -389.792969 431.917969 -356.667969 C 431.917969 -324.511719 424.882812 -297.878906 410.8125 -276.773438 C 397.097656 -256.199219 378.988281 -240.5 356.484375 -229.675781 C 336.34375 -219.988281 314.652344 -213.5 291.402344 -210.214844 C 270.011719 -207.195312 249.042969 -205.683594 228.5 -205.683594 L 201.3125 -205.683594 L 201.3125 -238.859375 L 229.191406 -256.84375 C 234.992188 -247.851562 240.933594 -241.554688 247.015625 -237.957031 C 252.378906 -234.78125 257.210938 -233.195312 261.515625 -233.195312 C 265.902344 -233.195312 270.257812 -234.90625 274.582031 -238.328125 L 302.367188 -260.324219 L 439 -62.203125 C 445.152344 -53.652344 450.859375 -48.214844 456.121094 -45.902344 C 462.652344 -43.027344 469.636719 -41.589844 477.070312 -41.589844 L 510.246094 -41.589844 L 510.246094 33.175781 L 412.984375 33.175781 C 389.398438 33.175781 368.464844 27.933594 350.191406 17.445312 C 333.785156 8.035156 319.394531 -3.804688 307.015625 -18.0625 C 296.355469 -30.347656 286.597656 -42.777344 277.753906 -55.347656 L 164.285156 -220.035156 L 191.605469 -238.859375 L 191.605469 -205.683594 L 135.289062 -205.683594 L 135.289062 -238.859375 L 168.464844 -238.859375 L 168.464844 -43.371094 C 168.464844 -40.042969 168.648438 -37.886719 169.019531 -36.894531 C 168.109375 -39.324219 166.15625 -41.445312 163.164062 -43.257812 L 163.082031 -43.359375 C 163.828125 -43.097656 164.804688 -42.851562 166.011719 -42.621094 C 169.625 -41.933594 174.273438 -41.589844 179.953125 -41.589844 L 213.128906 -41.589844 L 213.128906 33.175781 L -13.757812 33.175781 Z M 52.59375 0 L 19.417969 0 L 19.417969 -33.175781 L 179.953125 -33.175781 L 179.953125 0 L 146.777344 0 L 146.777344 -8.414062 L 179.953125 -8.414062 L 179.953125 24.761719 C 158.238281 24.761719 141.179688 21 128.773438 13.484375 C 111 2.710938 102.113281 -16.238281 102.113281 -43.371094 L 102.113281 -272.035156 L 209.035156 -272.035156 L 332.015625 -93.53125 C 339.566406 -82.800781 347.9375 -72.140625 357.125 -61.554688 C 364.597656 -52.945312 373.292969 -45.792969 383.210938 -40.101562 C 391.261719 -35.484375 401.1875 -33.175781 412.984375 -33.175781 L 477.070312 -33.175781 L 477.070312 0 L 443.894531 0 L 443.894531 -8.414062 L 477.070312 -8.414062 L 477.070312 24.761719 C 460.335938 24.761719 444.445312 21.449219 429.398438 14.832031 C 413.085938 7.652344 398.078125 -5.46875 384.378906 -24.535156 L 267.863281 -193.484375 L 295.175781 -212.316406 L 315.765625 -186.308594 C 299.375 -173.332031 281.292969 -166.84375 261.515625 -166.84375 C 245.101562 -166.84375 229.003906 -171.515625 213.222656 -180.855469 C 198.160156 -189.769531 184.898438 -203.109375 173.4375 -220.871094 L 140.429688 -272.035156 L 228.5 -272.035156 C 245.933594 -272.035156 263.804688 -273.328125 282.117188 -275.914062 C 298.570312 -278.238281 313.769531 -282.757812 327.722656 -289.46875 C 339.3125 -295.042969 348.605469 -303.078125 355.605469 -313.578125 C 362.246094 -323.539062 365.570312 -337.90625 365.570312 -356.667969 C 365.570312 -375.328125 362.09375 -389.398438 355.148438 -398.882812 C 347.589844 -409.207031 337.289062 -417.066406 324.242188 -422.464844 C 308.453125 -428.996094 290.621094 -433.285156 270.742188 -435.328125 C 248.785156 -437.585938 226.289062 -438.714844 203.257812 -438.714844 L 19.417969 -438.714844 L 19.417969 -471.890625 L 52.59375 -471.890625 L 52.59375 -463.476562 L 19.417969 -463.476562 L 19.417969 -496.652344 C 40.285156 -496.652344 56.898438 -493.195312 69.261719 -486.285156 C 87.925781 -475.855469 97.257812 -456.601562 97.257812 -428.519531 L 97.257812 -43.371094 C 97.257812 -16.046875 88.140625 2.976562 69.898438 13.707031 C 57.371094 21.074219 40.546875 24.761719 19.417969 24.761719 L 19.417969 -8.414062 L 52.59375 -8.414062 Z M 135.289062 -280.449219 L 203.902344 -280.449219 C 223.304688 -280.449219 240.738281 -282.9375 256.207031 -287.914062 C 267.996094 -291.710938 277.371094 -298.496094 284.335938 -308.273438 C 291.453125 -318.265625 295.011719 -334.179688 295.011719 -356.023438 C 295.011719 -381.441406 288.765625 -400.050781 276.277344 -411.84375 C 263.253906 -424.148438 243.226562 -430.300781 216.203125 -430.300781 L 135.289062 -430.300781 L 135.289062 -463.476562 L 168.464844 -463.476562 L 168.464844 -247.273438 L 135.289062 -247.273438 Z M 102.113281 -214.097656 L 102.113281 -496.652344 L 216.203125 -496.652344 C 260.8125 -496.652344 296.023438 -484.460938 321.835938 -460.082031 C 348.1875 -435.195312 361.363281 -400.511719 361.363281 -356.023438 C 361.363281 -320.035156 353.699219 -291.289062 338.378906 -269.777344 C 322.902344 -248.050781 302.285156 -233.042969 276.53125 -224.753906 C 254.457031 -217.648438 230.246094 -214.097656 203.902344 -214.097656 Z M 102.113281 -214.097656 "></path></g></g></g><g fill="#000000" fill-opacity="1"><g transform="translate(23.063113, 511.466001)"><g><path d="M 19.421875 0 L 19.421875 -8.421875 C 34.523438 -8.421875 45.742188 -10.578125 53.078125 -14.890625 C 60.410156 -19.203125 64.078125 -28.695312 64.078125 -43.375 L 64.078125 -428.515625 C 64.078125 -443.617188 60.410156 -453.21875 53.078125 -457.3125 C 45.742188 -461.414062 34.523438 -463.46875 19.421875 -463.46875 L 19.421875 -471.890625 L 203.25 -471.890625 C 227.414062 -471.890625 251.039062 -470.703125 274.125 -468.328125 C 297.21875 -465.953125 318.148438 -460.878906 336.921875 -453.109375 C 355.691406 -445.347656 370.6875 -433.804688 381.90625 -418.484375 C 393.132812 -403.171875 398.75 -382.566406 398.75 -356.671875 C 398.75 -331.210938 393.566406 -310.710938 383.203125 -295.171875 C 372.847656 -279.640625 359.144531 -267.769531 342.09375 -259.5625 C 325.050781 -251.363281 306.601562 -245.863281 286.75 -243.0625 C 266.90625 -240.257812 247.488281 -238.859375 228.5 -238.859375 L 201.3125 -238.859375 C 209.945312 -225.484375 219.550781 -215.664062 230.125 -209.40625 C 240.695312 -203.144531 251.160156 -200.015625 261.515625 -200.015625 C 273.597656 -200.015625 284.816406 -204.113281 295.171875 -212.3125 L 411.6875 -43.375 C 421.613281 -29.5625 431.96875 -20.28125 442.75 -15.53125 C 453.539062 -10.789062 464.976562 -8.421875 477.0625 -8.421875 L 477.0625 0 L 412.984375 0 C 395.296875 0 379.867188 -3.773438 366.703125 -11.328125 C 353.535156 -18.878906 341.988281 -28.375 332.0625 -39.8125 C 322.144531 -51.25 313.085938 -62.789062 304.890625 -74.4375 L 191.609375 -238.859375 L 135.28125 -238.859375 L 135.28125 -43.375 C 135.28125 -28.695312 138.84375 -19.203125 145.96875 -14.890625 C 153.09375 -10.578125 164.421875 -8.421875 179.953125 -8.421875 L 179.953125 0 Z M 135.28125 -247.265625 L 203.90625 -247.265625 C 226.78125 -247.265625 247.601562 -250.285156 266.375 -256.328125 C 285.144531 -262.367188 300.140625 -273.265625 311.359375 -289.015625 C 322.578125 -304.773438 328.1875 -327.109375 328.1875 -356.015625 C 328.1875 -390.972656 318.472656 -417.617188 299.046875 -435.953125 C 279.628906 -454.296875 252.015625 -463.46875 216.203125 -463.46875 L 135.28125 -463.46875 Z M 135.28125 -247.265625 "></path></g></g></g></g></g><g transform="matrix(1, 0, 0, 1, 421, 396)"><g clip-path="url(#b6452bd9a4)"><g fill="#ffffff" fill-opacity="1"><g transform="translate(7.503971, 519.466001)"><g><path d="M -0.808594 0 L -0.808594 -227.367188 L 73.957031 -227.367188 L 73.957031 -194.195312 C 73.957031 -155.851562 79.214844 -125.167969 89.730469 -102.140625 C 99.394531 -80.980469 112.070312 -65.695312 127.757812 -56.28125 C 144.082031 -46.488281 162.34375 -41.589844 182.542969 -41.589844 C 195.03125 -41.589844 206.234375 -43.402344 216.152344 -47.023438 C 223.335938 -49.644531 229.035156 -53.898438 233.257812 -59.789062 C 237.316406 -65.445312 239.34375 -74.214844 239.34375 -86.09375 C 239.34375 -96.789062 235.867188 -106.726562 228.914062 -115.910156 C 219.34375 -128.550781 206.621094 -140.851562 190.746094 -152.800781 C 172.890625 -166.246094 154.074219 -179.597656 134.296875 -192.851562 C 113.238281 -206.964844 93.175781 -221.648438 74.105469 -236.902344 C 53.058594 -253.742188 35.859375 -272.234375 22.511719 -292.386719 C 7.394531 -315.203125 -0.164062 -340.296875 -0.164062 -367.671875 C -0.164062 -400.675781 9.179688 -428.449219 27.863281 -450.988281 C 45.074219 -471.75 66.671875 -487.273438 92.65625 -497.558594 C 117.289062 -507.308594 142.289062 -512.1875 167.652344 -512.1875 C 187.121094 -512.1875 204.050781 -510.148438 218.441406 -506.078125 C 232.324219 -502.148438 244.476562 -497.300781 254.90625 -491.539062 C 262.578125 -487.300781 269.492188 -483.691406 275.640625 -480.714844 C 277.765625 -479.6875 279.53125 -479.171875 280.933594 -479.171875 C 281.613281 -479.171875 282.121094 -479.195312 282.464844 -479.242188 C 282.203125 -479.207031 281.808594 -479.101562 281.285156 -478.925781 C 277.84375 -477.78125 274.824219 -475.535156 272.222656 -472.191406 C 270.707031 -470.238281 269.78125 -468.527344 269.449219 -467.058594 C 269.660156 -468 269.765625 -469.609375 269.765625 -471.890625 L 269.765625 -505.066406 L 344.53125 -505.066406 L 344.53125 -285.949219 L 269.765625 -285.949219 L 269.765625 -319.125 C 269.765625 -342.769531 265.453125 -363.140625 256.820312 -380.230469 C 248.558594 -396.597656 237.496094 -409.191406 223.636719 -418.007812 C 210.082031 -426.632812 194.441406 -430.949219 176.714844 -430.949219 C 167.339844 -430.949219 159.707031 -429.972656 153.816406 -428.019531 C 150.023438 -426.761719 147.269531 -425.195312 145.554688 -423.316406 C 140.113281 -417.347656 137.390625 -409.160156 137.390625 -398.742188 C 137.390625 -384.515625 141.03125 -372.152344 148.3125 -361.652344 C 157.464844 -348.449219 169.433594 -336.351562 184.21875 -325.351562 C 201.226562 -312.699219 219.296875 -300.34375 238.425781 -288.285156 C 259.285156 -275.132812 279.03125 -261.175781 297.65625 -246.40625 C 318.183594 -230.136719 335.042969 -211.855469 348.234375 -191.558594 C 363.027344 -168.800781 370.425781 -142.492188 370.425781 -112.632812 C 370.425781 -85.515625 364.882812 -60.597656 353.792969 -37.878906 C 341.792969 -13.296875 322.265625 6.183594 295.203125 20.558594 C 269.621094 34.148438 235.738281 40.941406 193.546875 40.941406 C 173.128906 40.941406 155.558594 39.101562 140.835938 35.421875 C 126.71875 31.890625 114.285156 27.636719 103.539062 22.65625 C 95.125 18.757812 87.472656 15.390625 80.582031 12.550781 C 77.289062 11.195312 73.949219 10.519531 70.558594 10.519531 C 68.355469 10.519531 66.730469 10.652344 65.6875 10.917969 C 66.332031 10.753906 67.207031 10.25 68.3125 9.410156 C 70.394531 7.824219 71.96875 5.820312 73.027344 3.402344 C 73.648438 1.988281 73.957031 0.855469 73.957031 0 L 73.957031 33.175781 L -0.808594 33.175781 Z M 65.539062 0 L 32.367188 0 L 32.367188 -33.175781 L 40.78125 -33.175781 L 40.78125 0 L 7.605469 0 C 7.605469 -8.40625 9.15625 -16.148438 12.253906 -23.222656 C 15.796875 -31.308594 21.089844 -38.03125 28.136719 -43.394531 C 39.035156 -51.683594 53.175781 -55.832031 70.558594 -55.832031 C 82.699219 -55.832031 94.460938 -53.488281 105.84375 -48.800781 C 113.625 -45.597656 122.15625 -41.84375 131.4375 -37.542969 C 138.382812 -34.324219 146.878906 -31.460938 156.929688 -28.949219 C 166.371094 -26.585938 178.574219 -25.40625 193.546875 -25.40625 C 224.71875 -25.40625 248.226562 -29.617188 264.074219 -38.035156 C 278.441406 -45.667969 288.472656 -55.316406 294.167969 -66.984375 C 300.769531 -80.515625 304.074219 -95.734375 304.074219 -112.632812 C 304.074219 -129.378906 300.25 -143.636719 292.605469 -155.398438 C 283.355469 -169.628906 271.300781 -182.632812 256.441406 -194.410156 C 239.683594 -207.695312 221.882812 -220.277344 203.039062 -232.15625 C 182.46875 -245.125 162.992188 -258.445312 144.617188 -272.117188 C 124.015625 -287.441406 107.070312 -304.6875 93.785156 -323.847656 C 78.621094 -345.714844 71.042969 -370.679688 71.042969 -398.742188 C 71.042969 -426.304688 79.539062 -449.402344 96.539062 -468.03125 C 114.335938 -487.542969 141.0625 -497.296875 176.714844 -497.296875 C 207.324219 -497.296875 234.835938 -489.527344 259.257812 -473.988281 C 283.375 -458.640625 302.304688 -437.355469 316.050781 -410.136719 C 329.429688 -383.644531 336.117188 -353.304688 336.117188 -319.125 L 302.941406 -319.125 L 302.941406 -352.300781 L 311.355469 -352.300781 L 311.355469 -319.125 L 278.183594 -319.125 L 278.183594 -471.890625 L 311.355469 -471.890625 L 311.355469 -438.714844 L 302.941406 -438.714844 L 302.941406 -471.890625 L 336.117188 -471.890625 C 336.117188 -454.808594 332.277344 -441.328125 324.597656 -431.457031 C 314.9375 -419.035156 300.382812 -412.824219 280.933594 -412.824219 C 269.390625 -412.824219 257.992188 -415.542969 246.742188 -420.988281 C 239.511719 -424.488281 231.535156 -428.648438 222.8125 -433.46875 C 216.839844 -436.769531 209.359375 -439.691406 200.371094 -442.234375 C 191.886719 -444.636719 180.984375 -445.835938 167.652344 -445.835938 C 150.726562 -445.835938 133.867188 -442.511719 117.074219 -435.863281 C 101.628906 -429.753906 88.921875 -420.679688 78.945312 -408.644531 C 70.441406 -398.382812 66.1875 -384.726562 66.1875 -367.671875 C 66.1875 -353.621094 70.066406 -340.742188 77.824219 -329.03125 C 87.34375 -314.660156 99.921875 -301.222656 115.554688 -288.714844 C 133.167969 -274.625 151.726562 -261.042969 171.234375 -247.96875 C 192.023438 -234.035156 211.828125 -219.984375 230.65625 -205.808594 C 251.460938 -190.140625 268.515625 -173.527344 281.8125 -155.960938 C 297.734375 -134.933594 305.695312 -111.644531 305.695312 -86.09375 C 305.695312 -59.996094 299.523438 -38.339844 287.179688 -21.125 C 275.003906 -4.144531 258.914062 8 238.90625 15.304688 C 221.640625 21.609375 202.851562 24.761719 182.542969 24.761719 C 150.09375 24.761719 120.453125 16.710938 93.621094 0.613281 C 66.15625 -15.867188 44.742188 -40.929688 29.375 -74.578125 C 14.863281 -106.355469 7.605469 -146.226562 7.605469 -194.195312 L 40.78125 -194.195312 L 40.78125 -161.019531 L 32.367188 -161.019531 L 32.367188 -194.195312 L 65.539062 -194.195312 Z M 65.539062 0 "></path></g></g></g><g fill="#000000" fill-opacity="1"><g transform="translate(7.503971, 519.466001)"><g><path d="M 32.359375 0 L 32.359375 -194.1875 L 40.78125 -194.1875 C 40.78125 -151.039062 47.035156 -115.765625 59.546875 -88.359375 C 72.066406 -60.953125 89.113281 -40.773438 110.6875 -27.828125 C 132.269531 -14.890625 156.222656 -8.421875 182.546875 -8.421875 C 198.941406 -8.421875 213.9375 -10.898438 227.53125 -15.859375 C 241.125 -20.816406 252.019531 -29.015625 260.21875 -40.453125 C 268.414062 -51.890625 272.515625 -67.101562 272.515625 -86.09375 C 272.515625 -104.21875 266.796875 -120.832031 255.359375 -135.9375 C 243.929688 -151.039062 229.046875 -165.492188 210.703125 -179.296875 C 192.359375 -193.109375 173.046875 -206.8125 152.765625 -220.40625 C 132.484375 -234 113.171875 -248.128906 94.828125 -262.796875 C 76.492188 -277.472656 61.609375 -293.441406 50.171875 -310.703125 C 38.734375 -327.972656 33.015625 -346.960938 33.015625 -367.671875 C 33.015625 -392.703125 39.8125 -413.414062 53.40625 -429.8125 C 67 -446.207031 84.148438 -458.503906 104.859375 -466.703125 C 125.578125 -474.910156 146.507812 -479.015625 167.65625 -479.015625 C 184.050781 -479.015625 197.96875 -477.394531 209.40625 -474.15625 C 220.84375 -470.914062 230.660156 -467.03125 238.859375 -462.5 C 247.054688 -457.96875 254.5 -454.082031 261.1875 -450.84375 C 267.875 -447.613281 274.457031 -446 280.9375 -446 C 289.5625 -446 295.382812 -447.941406 298.40625 -451.828125 C 301.425781 -455.710938 302.9375 -462.398438 302.9375 -471.890625 L 311.359375 -471.890625 L 311.359375 -319.125 L 302.9375 -319.125 C 302.9375 -348.039062 297.429688 -373.394531 286.421875 -395.1875 C 275.421875 -416.976562 260.425781 -433.914062 241.4375 -446 C 222.457031 -458.082031 200.882812 -464.125 176.71875 -464.125 C 150.820312 -464.125 132.265625 -457.972656 121.046875 -445.671875 C 109.828125 -433.367188 104.21875 -417.726562 104.21875 -398.75 C 104.21875 -377.601562 109.828125 -358.9375 121.046875 -342.75 C 132.265625 -326.570312 146.71875 -311.898438 164.40625 -298.734375 C 182.101562 -285.566406 200.878906 -272.726562 220.734375 -260.21875 C 240.585938 -247.707031 259.359375 -234.4375 277.046875 -220.40625 C 294.742188 -206.382812 309.203125 -190.742188 320.421875 -173.484375 C 331.640625 -156.222656 337.25 -135.9375 337.25 -112.625 C 337.25 -90.625 332.820312 -70.5625 323.96875 -52.4375 C 315.125 -34.3125 300.34375 -19.742188 279.625 -8.734375 C 258.914062 2.261719 230.222656 7.765625 193.546875 7.765625 C 175.847656 7.765625 160.957031 6.253906 148.875 3.234375 C 136.789062 0.210938 126.328125 -3.34375 117.484375 -7.4375 C 108.640625 -11.539062 100.546875 -15.101562 93.203125 -18.125 C 85.867188 -21.144531 78.320312 -22.65625 70.5625 -22.65625 C 50.707031 -22.65625 40.78125 -15.101562 40.78125 0 Z M 32.359375 0 "></path></g></g></g></g></g></svg></g></g></svg>